<?xml version="1.0" encoding="utf-8"?>
<!-- Generator: Adobe Illustrator 16.0.0, SVG Export Plug-In . SVG Version: 6.00 Build 0)  -->
<!DOCTYPE svg PUBLIC "-//W3C//DTD SVG 1.1//EN" "http://www.w3.org/Graphics/SVG/1.1/DTD/svg11.dtd">
<svg version="1.1" id="Capa_1" xmlns="http://www.w3.org/2000/svg" xmlns:xlink="http://www.w3.org/1999/xlink" x="0px" y="0px"
	 width="135px" height="40px" viewBox="0 0 135 40" enable-background="new 0 0 135 40" xml:space="preserve">
<g>
	<defs>
		<rect id="SVGID_1_" width="135" height="40"/>
	</defs>
	<clipPath id="SVGID_2_">
		<use xlink:href="#SVGID_1_"  overflow="visible"/>
	</clipPath>
	<g clip-path="url(#SVGID_2_)">
		<defs>
			<rect id="SVGID_3_" width="135" height="40"/>
		</defs>
		<clipPath id="SVGID_4_">
			<use xlink:href="#SVGID_3_"  overflow="visible"/>
		</clipPath>
		<path clip-path="url(#SVGID_4_)" d="M130,40H5c-2.75,0-5-2.25-5-5V5c0-2.75,2.25-5,5-5h125c2.75,0,5,2.25,5,5v30
			C135,37.75,132.75,40,130,40"/>
		<path clip-path="url(#SVGID_4_)" fill="#A6A6A6" d="M130,0.8c2.316,0,4.2,1.884,4.2,4.2v30c0,2.316-1.884,4.2-4.2,4.2H5
			c-2.316,0-4.2-1.884-4.2-4.2V5c0-2.316,1.884-4.2,4.2-4.2H130 M130,0H5C2.25,0,0,2.25,0,5v30c0,2.75,2.25,5,5,5h125
			c2.75,0,5-2.25,5-5V5C135,2.25,132.75,0,130,0"/>
		<path clip-path="url(#SVGID_4_)" fill="#FFFFFF" d="M68.136,21.751c-2.352,0-4.269,1.789-4.269,4.254
			c0,2.448,1.917,4.253,4.269,4.253c2.353,0,4.27-1.805,4.27-4.253C72.405,23.54,70.488,21.751,68.136,21.751 M68.136,28.582
			c-1.289,0-2.401-1.063-2.401-2.577c0-1.531,1.112-2.578,2.401-2.578c1.289,0,2.4,1.047,2.4,2.578
			C70.536,27.519,69.425,28.582,68.136,28.582 M58.822,21.751c-2.352,0-4.269,1.789-4.269,4.254c0,2.448,1.917,4.253,4.269,4.253
			c2.352,0,4.27-1.805,4.27-4.253C63.092,23.54,61.174,21.751,58.822,21.751 M58.822,28.582c-1.288,0-2.4-1.063-2.4-2.577
			c0-1.531,1.112-2.578,2.4-2.578c1.289,0,2.401,1.047,2.401,2.578C61.223,27.519,60.111,28.582,58.822,28.582 M47.744,23.057v1.805
			h4.317c-0.129,1.015-0.467,1.756-0.982,2.271c-0.629,0.629-1.612,1.321-3.335,1.321c-2.659,0-4.737-2.143-4.737-4.801
			s2.078-4.8,4.737-4.8c1.434,0,2.481,0.563,3.254,1.288l1.273-1.271c-1.08-1.031-2.513-1.821-4.527-1.821
			c-3.641,0-6.702,2.965-6.702,6.605c0,3.642,3.061,6.605,6.702,6.605c1.965,0,3.447-0.645,4.607-1.853
			c1.192-1.192,1.563-2.867,1.563-4.222c0-0.419-0.032-0.805-0.097-1.127H47.744z M93.052,24.458
			c-0.354-0.951-1.434-2.707-3.641-2.707c-2.191,0-4.011,1.724-4.011,4.254c0,2.384,1.804,4.253,4.22,4.253
			c1.95,0,3.077-1.191,3.545-1.885l-1.45-0.967c-0.483,0.709-1.144,1.176-2.095,1.176c-0.95,0-1.627-0.435-2.062-1.288l5.688-2.353
			L93.052,24.458z M87.252,25.876c-0.048-1.644,1.273-2.481,2.223-2.481c0.742,0,1.37,0.37,1.579,0.902L87.252,25.876z M82.628,30
			h1.869V17.498h-1.869V30z M79.567,22.702h-0.064c-0.419-0.499-1.224-0.951-2.239-0.951c-2.127,0-4.075,1.869-4.075,4.271
			c0,2.384,1.948,4.236,4.075,4.236c1.016,0,1.82-0.451,2.239-0.967h0.064v0.612c0,1.628-0.869,2.497-2.271,2.497
			c-1.144,0-1.853-0.821-2.143-1.515l-1.627,0.678c0.467,1.128,1.708,2.513,3.77,2.513c2.191,0,4.044-1.289,4.044-4.43v-7.638
			h-1.772V22.702z M77.425,28.582c-1.289,0-2.368-1.079-2.368-2.561c0-1.498,1.079-2.595,2.368-2.595
			c1.273,0,2.271,1.097,2.271,2.595C79.696,27.503,78.698,28.582,77.425,28.582 M101.806,17.499h-4.471V30H99.2v-4.736h2.605
			c2.068,0,4.102-1.498,4.102-3.883S103.874,17.499,101.806,17.499 M101.854,23.524H99.2v-4.287h2.653
			c1.396,0,2.188,1.156,2.188,2.143C104.041,22.35,103.249,23.524,101.854,23.524 M113.386,21.729c-1.351,0-2.751,0.596-3.33,1.913
			l1.657,0.692c0.354-0.692,1.013-0.917,1.705-0.917c0.965,0,1.946,0.579,1.962,1.608v0.129c-0.338-0.193-1.062-0.482-1.946-0.482
			c-1.784,0-3.603,0.981-3.603,2.814c0,1.673,1.464,2.75,3.104,2.75c1.256,0,1.946-0.562,2.382-1.223h0.063v0.965h1.801v-4.793
			C117.181,22.967,115.525,21.729,113.386,21.729 M113.161,28.58c-0.612,0-1.464-0.306-1.464-1.062c0-0.965,1.061-1.334,1.978-1.334
			c0.82,0,1.206,0.178,1.705,0.418C115.235,27.76,114.238,28.58,113.161,28.58 M123.743,22.002l-2.14,5.42h-0.063l-2.22-5.42h-2.011
			l3.329,7.575l-1.897,4.214h1.945l5.132-11.789H123.743z M106.936,30h1.866V17.499h-1.866V30z"/>
	</g>
	<g clip-path="url(#SVGID_2_)">
		<defs>
			<path id="SVGID_5_" d="M10.436,7.538c-0.291,0.308-0.463,0.786-0.463,1.405v22.116c0,0.62,0.172,1.098,0.463,1.404l0.073,0.073
				l12.39-12.389v-0.146v-0.147L10.509,7.465L10.436,7.538z"/>
		</defs>
		<clipPath id="SVGID_6_">
			<use xlink:href="#SVGID_5_"  overflow="visible"/>
		</clipPath>
		
			<linearGradient id="SVGID_7_" gradientUnits="userSpaceOnUse" x1="9.765625e-04" y1="39.8242" x2="1.001" y2="39.8242" gradientTransform="matrix(-16.7824 16.7824 -16.7824 -16.7824 693.1398 680.004)">
			<stop  offset="0" style="stop-color:#00A0FF"/>
			<stop  offset="0.0066" style="stop-color:#00A1FF"/>
			<stop  offset="0.2601" style="stop-color:#00BEFF"/>
			<stop  offset="0.5122" style="stop-color:#00D2FF"/>
			<stop  offset="0.7604" style="stop-color:#00DFFF"/>
			<stop  offset="1" style="stop-color:#00E3FF"/>
		</linearGradient>
		<polygon clip-path="url(#SVGID_6_)" fill="url(#SVGID_7_)" points="16.436,1.002 -2.562,20.001 16.436,38.999 35.435,20.001 		"/>
	</g>
	<g clip-path="url(#SVGID_2_)">
		<defs>
			<path id="SVGID_8_" d="M22.899,19.854v0.147v0.146l4.129,4.132l0.094-0.054l4.893-2.779c1.398-0.795,1.398-2.095,0-2.889
				l-4.893-2.78l-0.093-0.053L22.899,19.854z"/>
		</defs>
		<clipPath id="SVGID_9_">
			<use xlink:href="#SVGID_8_"  overflow="visible"/>
		</clipPath>
		
			<linearGradient id="SVGID_10_" gradientUnits="userSpaceOnUse" x1="0" y1="40" x2="1" y2="40" gradientTransform="matrix(-24.1969 0 0 -24.1969 33.8125 987.8604)">
			<stop  offset="0" style="stop-color:#FFE000"/>
			<stop  offset="0.4087" style="stop-color:#FFBD00"/>
			<stop  offset="0.7754" style="stop-color:#FFA500"/>
			<stop  offset="1" style="stop-color:#FF9C00"/>
		</linearGradient>
		<rect x="22.899" y="15.724" clip-path="url(#SVGID_9_)" fill="url(#SVGID_10_)" width="10.514" height="8.555"/>
	</g>
	<g clip-path="url(#SVGID_2_)">
		<defs>
			<path id="SVGID_11_" d="M10.436,32.463c0.46,0.488,1.221,0.549,2.078,0.062l14.608-8.301l-4.223-4.224L10.436,32.463z"/>
		</defs>
		<clipPath id="SVGID_12_">
			<use xlink:href="#SVGID_11_"  overflow="visible"/>
		</clipPath>
		
			<linearGradient id="SVGID_13_" gradientUnits="userSpaceOnUse" x1="-0.0078" y1="40.0322" x2="0.9922" y2="40.0322" gradientTransform="matrix(-22.7583 22.7583 -22.7583 -22.7583 934.832 932.6122)">
			<stop  offset="0" style="stop-color:#FF3A44"/>
			<stop  offset="1" style="stop-color:#C31162"/>
		</linearGradient>
		<polygon clip-path="url(#SVGID_12_)" fill="url(#SVGID_13_)" points="18.779,11.658 3.931,26.507 18.779,41.355 33.627,26.507 		
			"/>
	</g>
	<g clip-path="url(#SVGID_2_)">
		<defs>
			<path id="SVGID_14_" d="M10.436,7.538l12.463,12.463l4.223-4.224l-14.608-8.3c-0.402-0.229-0.783-0.337-1.121-0.337
				C11.009,7.14,10.68,7.279,10.436,7.538"/>
		</defs>
		<clipPath id="SVGID_15_">
			<use xlink:href="#SVGID_14_"  overflow="visible"/>
		</clipPath>
		
			<linearGradient id="SVGID_16_" gradientUnits="userSpaceOnUse" x1="0.0181" y1="40.1133" x2="1.0181" y2="40.1133" gradientTransform="matrix(10.1625 10.1625 -10.1625 10.1625 413.7968 -406.7031)">
			<stop  offset="0" style="stop-color:#32A071"/>
			<stop  offset="0.0685" style="stop-color:#2DA771"/>
			<stop  offset="0.4762" style="stop-color:#15CF74"/>
			<stop  offset="0.8009" style="stop-color:#06E775"/>
			<stop  offset="1" style="stop-color:#00F076"/>
		</linearGradient>
		<polygon clip-path="url(#SVGID_15_)" fill="url(#SVGID_16_)" points="4.005,13.57 18.779,28.344 33.553,13.57 18.779,-1.203 		"/>
	</g>
	<g clip-path="url(#SVGID_2_)">
		<defs>
			<rect id="SVGID_17_" width="135" height="40"/>
		</defs>
		<clipPath id="SVGID_18_">
			<use xlink:href="#SVGID_17_"  overflow="visible"/>
		</clipPath>
		<g opacity="0.2" clip-path="url(#SVGID_18_)" enable-background="new    ">
			<g>
				<defs>
					<rect id="SVGID_19_" x="10.435" y="24.132" width="16.687" height="8.729"/>
				</defs>
				<clipPath id="SVGID_20_">
					<use xlink:href="#SVGID_19_"  overflow="visible"/>
				</clipPath>
				<path clip-path="url(#SVGID_20_)" d="M27.029,24.132l-14.515,8.247c-0.812,0.462-1.538,0.431-2.004,0.011l-0.074,0.074
					l0.074,0.073v-0.001c0.466,0.42,1.192,0.45,2.004-0.012l14.608-8.3L27.029,24.132z"/>
			</g>
		</g>
		<g opacity="0.12" clip-path="url(#SVGID_18_)" enable-background="new    ">
			<g>
				<defs>
					<rect id="SVGID_21_" x="9.973" y="30.913" width="0.537" height="1.551"/>
				</defs>
				<clipPath id="SVGID_22_">
					<use xlink:href="#SVGID_21_"  overflow="visible"/>
				</clipPath>
				<path clip-path="url(#SVGID_22_)" d="M10.435,32.318c-0.291-0.309-0.463-0.786-0.463-1.405v0.146
					c0,0.618,0.172,1.097,0.463,1.404l0.074-0.073L10.435,32.318z"/>
			</g>
		</g>
		<g opacity="0.12" clip-path="url(#SVGID_18_)" enable-background="new    ">
			<g>
				<defs>
					<rect id="SVGID_23_" x="27.029" y="20.001" width="6.034" height="4.224"/>
				</defs>
				<clipPath id="SVGID_24_">
					<use xlink:href="#SVGID_23_"  overflow="visible"/>
				</clipPath>
				<path clip-path="url(#SVGID_24_)" d="M32.015,21.299l-4.986,2.833l0.093,0.093l4.893-2.78c0.699-0.396,1.048-0.92,1.048-1.442
					C33.003,20.475,32.648,20.938,32.015,21.299"/>
			</g>
		</g>
		<g opacity="0.25" clip-path="url(#SVGID_18_)" enable-background="new    ">
			<g>
				<defs>
					<rect id="SVGID_25_" x="9.973" y="7.141" width="23.09" height="12.86"/>
				</defs>
				<clipPath id="SVGID_26_">
					<use xlink:href="#SVGID_25_"  overflow="visible"/>
				</clipPath>
				<path clip-path="url(#SVGID_26_)" fill="#FFFFFF" d="M12.513,7.623l19.501,11.08c0.634,0.36,0.99,0.824,1.048,1.298
					c0.001-0.523-0.349-1.047-1.048-1.444L12.513,7.477c-1.398-0.794-2.541-0.135-2.541,1.466v0.146
					C9.972,7.489,11.115,6.829,12.513,7.623"/>
			</g>
		</g>
		<path clip-path="url(#SVGID_18_)" fill="#FFFFFF" d="M41.28,13V7h1.835c0.922,0,1.66,0.278,2.213,0.834
			C45.881,8.39,46.157,9.112,46.157,10c0,0.888-0.276,1.611-0.829,2.166C44.775,12.722,44.037,13,43.115,13H41.28z M42.051,12.263
			h1.064c0.693,0,1.242-0.198,1.647-0.595s0.607-0.953,0.607-1.668c0-0.709-0.202-1.263-0.607-1.663
			c-0.405-0.399-0.954-0.599-1.647-0.599h-1.064V12.263z"/>
		<path clip-path="url(#SVGID_18_)" fill="none" stroke="#FFFFFF" stroke-width="0.2" stroke-miterlimit="10" d="M41.28,13V7h1.835
			c0.922,0,1.66,0.278,2.213,0.834C45.881,8.39,46.157,9.112,46.157,10c0,0.888-0.276,1.611-0.829,2.166
			C44.775,12.722,44.037,13,43.115,13H41.28z M42.051,12.263h1.064c0.693,0,1.242-0.198,1.647-0.595s0.607-0.953,0.607-1.668
			c0-0.709-0.202-1.263-0.607-1.663c-0.405-0.399-0.954-0.599-1.647-0.599h-1.064V12.263z"/>
		<rect x="47.239" y="7" clip-path="url(#SVGID_18_)" fill="#FFFFFF" width="0.771" height="6"/>
		
			<rect x="47.239" y="7" clip-path="url(#SVGID_18_)" fill="none" stroke="#FFFFFF" stroke-width="0.2" stroke-miterlimit="10" width="0.771" height="6"/>
		<path clip-path="url(#SVGID_18_)" fill="#FFFFFF" d="M51.076,13.134c-0.436,0-0.861-0.142-1.277-0.427
			c-0.417-0.285-0.69-0.684-0.818-1.199l0.704-0.284c0.084,0.329,0.255,0.607,0.515,0.833c0.261,0.226,0.552,0.34,0.876,0.34
			c0.335,0,0.622-0.088,0.859-0.264c0.238-0.176,0.356-0.415,0.356-0.717c0-0.335-0.118-0.593-0.356-0.775
			c-0.237-0.181-0.613-0.35-1.127-0.507c-0.531-0.167-0.933-0.384-1.207-0.649C49.328,9.219,49.19,8.88,49.19,8.467
			c0-0.431,0.171-0.805,0.512-1.123s0.785-0.478,1.332-0.478c0.509,0,0.922,0.127,1.24,0.381c0.319,0.255,0.526,0.533,0.62,0.834
			l-0.703,0.293c-0.051-0.189-0.175-0.366-0.373-0.528c-0.198-0.161-0.454-0.242-0.767-0.242c-0.296,0-0.549,0.082-0.758,0.247
			c-0.21,0.165-0.315,0.37-0.315,0.616c0,0.223,0.097,0.412,0.289,0.565c0.194,0.154,0.477,0.292,0.851,0.415
			c0.296,0.095,0.543,0.187,0.742,0.277c0.198,0.089,0.4,0.208,0.603,0.356c0.204,0.148,0.357,0.332,0.461,0.553
			c0.103,0.221,0.155,0.476,0.155,0.767c0,0.29-0.06,0.55-0.18,0.779c-0.12,0.229-0.28,0.411-0.478,0.545
			c-0.199,0.134-0.411,0.236-0.641,0.306C51.551,13.099,51.316,13.134,51.076,13.134"/>
		<path clip-path="url(#SVGID_18_)" fill="none" stroke="#FFFFFF" stroke-width="0.2" stroke-miterlimit="10" d="M51.076,13.134
			c-0.436,0-0.861-0.142-1.277-0.427c-0.417-0.285-0.69-0.684-0.818-1.199l0.704-0.284c0.084,0.329,0.255,0.607,0.515,0.833
			c0.261,0.226,0.552,0.34,0.876,0.34c0.335,0,0.622-0.088,0.859-0.264c0.238-0.176,0.356-0.415,0.356-0.717
			c0-0.335-0.118-0.593-0.356-0.775c-0.237-0.181-0.613-0.35-1.127-0.507c-0.531-0.167-0.933-0.384-1.207-0.649
			C49.328,9.219,49.19,8.88,49.19,8.467c0-0.431,0.171-0.805,0.512-1.123s0.785-0.478,1.332-0.478c0.509,0,0.922,0.127,1.24,0.381
			c0.319,0.255,0.526,0.533,0.62,0.834l-0.703,0.293c-0.051-0.189-0.175-0.366-0.373-0.528c-0.198-0.161-0.454-0.242-0.767-0.242
			c-0.296,0-0.549,0.082-0.758,0.247c-0.21,0.165-0.315,0.37-0.315,0.616c0,0.223,0.097,0.412,0.289,0.565
			c0.194,0.154,0.477,0.292,0.851,0.415c0.296,0.095,0.543,0.187,0.742,0.277c0.198,0.089,0.4,0.208,0.603,0.356
			c0.204,0.148,0.357,0.332,0.461,0.553c0.103,0.221,0.155,0.476,0.155,0.767c0,0.29-0.06,0.55-0.18,0.779
			c-0.12,0.229-0.28,0.411-0.478,0.545c-0.199,0.134-0.411,0.236-0.641,0.306C51.551,13.099,51.316,13.134,51.076,13.134z"/>
		<path clip-path="url(#SVGID_18_)" fill="#FFFFFF" d="M54.956,13h-0.771V7h2.045c0.508,0,0.949,0.169,1.32,0.507
			c0.372,0.338,0.557,0.764,0.557,1.278c0,0.514-0.185,0.94-0.557,1.277c-0.371,0.339-0.812,0.508-1.32,0.508h-1.274V13z
			 M54.956,9.832h1.291c0.324,0,0.584-0.108,0.779-0.326c0.196-0.218,0.293-0.458,0.293-0.721c0-0.262-0.097-0.503-0.293-0.721
			c-0.195-0.218-0.455-0.327-0.779-0.327h-1.291V9.832z"/>
		<path clip-path="url(#SVGID_18_)" fill="none" stroke="#FFFFFF" stroke-width="0.2" stroke-miterlimit="10" d="M54.956,13h-0.771
			V7h2.045c0.508,0,0.949,0.169,1.32,0.507c0.372,0.338,0.557,0.764,0.557,1.278c0,0.514-0.185,0.94-0.557,1.277
			c-0.371,0.339-0.812,0.508-1.32,0.508h-1.274V13z M54.956,9.832h1.291c0.324,0,0.584-0.108,0.779-0.326
			c0.196-0.218,0.293-0.458,0.293-0.721c0-0.262-0.097-0.503-0.293-0.721c-0.195-0.218-0.455-0.327-0.779-0.327h-1.291V9.832z"/>
		<path clip-path="url(#SVGID_18_)" fill="#FFFFFF" d="M63.985,12.224c-0.59,0.607-1.323,0.91-2.2,0.91s-1.61-0.303-2.199-0.91
			c-0.59-0.605-0.884-1.347-0.884-2.224s0.294-1.619,0.884-2.225c0.589-0.606,1.322-0.909,2.199-0.909
			c0.872,0,1.603,0.304,2.196,0.913c0.592,0.609,0.888,1.349,0.888,2.221C64.869,10.877,64.574,11.619,63.985,12.224 M60.155,11.722
			c0.444,0.45,0.987,0.674,1.63,0.674c0.642,0,1.186-0.224,1.63-0.674c0.444-0.45,0.667-1.024,0.667-1.722
			c0-0.698-0.223-1.273-0.667-1.722c-0.444-0.45-0.988-0.675-1.63-0.675c-0.643,0-1.186,0.225-1.63,0.675
			C59.712,8.727,59.489,9.302,59.489,10C59.489,10.698,59.712,11.272,60.155,11.722"/>
		<path clip-path="url(#SVGID_18_)" fill="none" stroke="#FFFFFF" stroke-width="0.2" stroke-miterlimit="10" d="M63.985,12.224
			c-0.59,0.607-1.323,0.91-2.2,0.91s-1.61-0.303-2.199-0.91c-0.59-0.605-0.884-1.347-0.884-2.224s0.294-1.619,0.884-2.225
			c0.589-0.606,1.322-0.909,2.199-0.909c0.872,0,1.603,0.304,2.196,0.913c0.592,0.609,0.888,1.349,0.888,2.221
			C64.869,10.877,64.574,11.619,63.985,12.224z M60.155,11.722c0.444,0.45,0.987,0.674,1.63,0.674c0.642,0,1.186-0.224,1.63-0.674
			c0.444-0.45,0.667-1.024,0.667-1.722c0-0.698-0.223-1.273-0.667-1.722c-0.444-0.45-0.988-0.675-1.63-0.675
			c-0.643,0-1.186,0.225-1.63,0.675C59.712,8.727,59.489,9.302,59.489,10C59.489,10.698,59.712,11.272,60.155,11.722z"/>
		<polygon clip-path="url(#SVGID_18_)" fill="#FFFFFF" points="65.951,13 65.951,7 66.889,7 69.805,11.668 69.839,11.668 
			69.805,10.511 69.805,7 70.577,7 70.577,13 69.772,13 66.721,8.106 66.688,8.106 66.721,9.263 66.721,13 		"/>
		<polygon clip-path="url(#SVGID_18_)" fill="none" stroke="#FFFFFF" stroke-width="0.2" stroke-miterlimit="10" points="65.951,13 
			65.951,7 66.889,7 69.805,11.668 69.839,11.668 69.805,10.511 69.805,7 70.577,7 70.577,13 69.772,13 66.721,8.106 66.688,8.106 
			66.721,9.263 66.721,13 		"/>
		<rect x="71.951" y="7" clip-path="url(#SVGID_18_)" fill="#FFFFFF" width="0.771" height="6"/>
		
			<rect x="71.951" y="7" clip-path="url(#SVGID_18_)" fill="none" stroke="#FFFFFF" stroke-width="0.2" stroke-miterlimit="10" width="0.771" height="6"/>
		<path clip-path="url(#SVGID_18_)" fill="#FFFFFF" d="M74.095,13V7h2.17c0.471,0,0.876,0.156,1.221,0.465
			c0.344,0.311,0.516,0.7,0.516,1.169c0,0.285-0.074,0.537-0.223,0.754c-0.147,0.219-0.346,0.383-0.591,0.495v0.033
			c0.296,0.101,0.539,0.274,0.729,0.52c0.189,0.246,0.285,0.531,0.285,0.855c0,0.492-0.181,0.899-0.541,1.223
			C77.301,12.837,76.875,13,76.383,13H74.095z M74.866,9.573h1.398c0.291,0,0.525-0.096,0.701-0.29
			c0.175-0.192,0.264-0.403,0.264-0.632s-0.085-0.439-0.257-0.628c-0.17-0.19-0.394-0.285-0.673-0.285h-1.434V9.573z M74.866,12.263
			h1.551c0.296,0,0.536-0.104,0.72-0.311c0.186-0.206,0.277-0.432,0.277-0.678c0-0.246-0.095-0.471-0.285-0.675
			c-0.189-0.203-0.438-0.306-0.746-0.306h-1.517V12.263z"/>
		<path clip-path="url(#SVGID_18_)" fill="none" stroke="#FFFFFF" stroke-width="0.2" stroke-miterlimit="10" d="M74.095,13V7h2.17
			c0.471,0,0.876,0.156,1.221,0.465c0.344,0.311,0.516,0.7,0.516,1.169c0,0.285-0.074,0.537-0.223,0.754
			c-0.147,0.219-0.346,0.383-0.591,0.495v0.033c0.296,0.101,0.539,0.274,0.729,0.52c0.189,0.246,0.285,0.531,0.285,0.855
			c0,0.492-0.181,0.899-0.541,1.223C77.301,12.837,76.875,13,76.383,13H74.095z M74.866,9.573h1.398c0.291,0,0.525-0.096,0.701-0.29
			c0.175-0.192,0.264-0.403,0.264-0.632s-0.085-0.439-0.257-0.628c-0.17-0.19-0.394-0.285-0.673-0.285h-1.434V9.573z M74.866,12.263
			h1.551c0.296,0,0.536-0.104,0.72-0.311c0.186-0.206,0.277-0.432,0.277-0.678c0-0.246-0.095-0.471-0.285-0.675
			c-0.189-0.203-0.438-0.306-0.746-0.306h-1.517V12.263z"/>
		<polygon clip-path="url(#SVGID_18_)" fill="#FFFFFF" points="79.241,13 79.241,7 80.011,7 80.011,12.263 82.609,12.263 82.609,13 
					"/>
		<polygon clip-path="url(#SVGID_18_)" fill="none" stroke="#FFFFFF" stroke-width="0.2" stroke-miterlimit="10" points="79.241,13 
			79.241,7 80.011,7 80.011,12.263 82.609,12.263 82.609,13 		"/>
		<polygon clip-path="url(#SVGID_18_)" fill="#FFFFFF" points="87.085,7.737 84.353,7.737 84.353,9.639 86.815,9.639 86.815,10.36 
			84.353,10.36 84.353,12.262 87.085,12.262 87.085,13 83.582,13 83.582,7 87.085,7 		"/>
		<polygon clip-path="url(#SVGID_18_)" fill="none" stroke="#FFFFFF" stroke-width="0.2" stroke-miterlimit="10" points="
			87.085,7.737 84.353,7.737 84.353,9.639 86.815,9.639 86.815,10.36 84.353,10.36 84.353,12.262 87.085,12.262 87.085,13 
			83.582,13 83.582,7 87.085,7 		"/>
		<polygon clip-path="url(#SVGID_18_)" fill="#FFFFFF" points="93.806,7.737 91.073,7.737 91.073,9.639 93.536,9.639 93.536,10.36 
			91.073,10.36 91.073,12.262 93.806,12.262 93.806,13 90.303,13 90.303,7 93.806,7 		"/>
		<polygon clip-path="url(#SVGID_18_)" fill="none" stroke="#FFFFFF" stroke-width="0.2" stroke-miterlimit="10" points="
			93.806,7.737 91.073,7.737 91.073,9.639 93.536,9.639 93.536,10.36 91.073,10.36 91.073,12.262 93.806,12.262 93.806,13 
			90.303,13 90.303,7 93.806,7 		"/>
		<polygon clip-path="url(#SVGID_18_)" fill="#FFFFFF" points="95.012,13 95.012,7 95.95,7 98.866,11.668 98.899,11.668 
			98.866,10.511 98.866,7 99.638,7 99.638,13 98.833,13 95.782,8.106 95.749,8.106 95.782,9.263 95.782,13 		"/>
		<polygon clip-path="url(#SVGID_18_)" fill="none" stroke="#FFFFFF" stroke-width="0.2" stroke-miterlimit="10" points="95.012,13 
			95.012,7 95.95,7 98.866,11.668 98.899,11.668 98.866,10.511 98.866,7 99.638,7 99.638,13 98.833,13 95.782,8.106 95.749,8.106 
			95.782,9.263 95.782,13 		"/>
	</g>
</g>
</svg>
