<?xml version="1.0" encoding="utf-8"?>
<!-- Generator: Adobe Illustrator 16.0.0, SVG Export Plug-In . SVG Version: 6.00 Build 0)  -->
<!DOCTYPE svg PUBLIC "-//W3C//DTD SVG 1.1//EN" "http://www.w3.org/Graphics/SVG/1.1/DTD/svg11.dtd">
<svg version="1.1" id="Capa_1" xmlns="http://www.w3.org/2000/svg" xmlns:xlink="http://www.w3.org/1999/xlink" x="0px" y="0px"
	 width="195.527px" height="29.485px" viewBox="0 0 195.527 29.485" enable-background="new 0 0 195.527 29.485"
	 xml:space="preserve">
<path fill="#7EAA64" d="M69.507,26.168c-0.33,0.133-1.398,0.488-2.705,0.488c-2.705,0-3.748-1.729-3.748-4.685
	c0-2.44,0.726-4.485,3.669-4.485c2.058,0,2.864,0.897,3.009,1.953h-1.584c-0.066-0.437-0.343-1.333-1.544-1.333
	c-1.808,0-2.097,2.177-2.097,3.536c0,1.478,0.157,4.394,2.704,4.394c1.149,0,1.953-0.461,2.296-0.712V26.168z"/>
<path fill="#7EAA64" d="M70.576,23.451c0-2.203,0.923-3.221,2.849-3.221c1.913,0,2.851,1.32,2.851,3.221
	c0,2.15-0.898,3.206-2.851,3.206C71.301,26.657,70.576,25.297,70.576,23.451 M73.425,26.208c1.294,0,1.399-1.438,1.399-2.758
	c0-1.213-0.118-2.771-1.399-2.771c-1.305,0-1.397,1.61-1.397,2.771C72.028,24.546,72.12,26.208,73.425,26.208"/>
<path fill="#7EAA64" d="M77.422,23.451c0-2.203,0.924-3.221,2.85-3.221c1.913,0,2.852,1.32,2.852,3.221
	c0,2.15-0.899,3.206-2.852,3.206C78.148,26.657,77.422,25.297,77.422,23.451 M80.272,26.208c1.293,0,1.399-1.438,1.399-2.758
	c0-1.213-0.118-2.771-1.399-2.771c-1.306,0-1.398,1.61-1.398,2.771C78.875,24.546,78.966,26.208,80.272,26.208"/>
<path fill="#7EAA64" d="M84.905,22.091c0-0.923-0.212-1.147-1.031-1.173v-0.265l2.362-0.424v1.07h0.028
	c0.29-0.396,0.884-1.07,1.701-1.07c1.676,0,2.297,1.453,2.297,3.115c0,1.596-0.448,3.312-2.349,3.312
	c-1.03,0-1.425-0.541-1.662-0.963h-0.028v3.51h-1.318V22.091z M86.223,23.861c0,0.725,0.145,2.084,1.32,2.084
	c1.148,0,1.267-1.623,1.267-2.6c0-0.951-0.106-2.401-1.279-2.401c-1.188,0-1.308,1.676-1.308,2.373V23.861z"/>
<path fill="#7EAA64" d="M96.396,26.301c-0.25,0.092-0.949,0.355-1.861,0.355c-2.019,0-3.233-1.228-3.233-3.432
	c0-2.084,1.003-2.995,2.772-2.995c2.257,0,2.442,1.637,2.442,2.521h-3.761c0,1.319,0.54,3.192,2.4,3.192
	c0.556,0,1.017-0.132,1.241-0.224V26.301z M95.195,22.223c0-0.304-0.026-1.544-1.174-1.544c-0.989,0-1.266,1.043-1.266,1.544H95.195
	z"/>
<path fill="#7EAA64" d="M98.006,22.091c0-0.923-0.21-1.147-1.042-1.173v-0.266l2.361-0.423v1.742h0.026
	c0.186-0.606,0.595-1.742,1.65-1.742c0.237,0,0.488,0.028,0.712,0.066v1.255c-0.212-0.066-0.449-0.159-0.672-0.159
	c-1.334,0-1.717,1.042-1.717,1.966v3.154h-1.319V22.091z"/>
<path fill="#7EAA64" d="M105.424,25.733c-0.238,0.277-0.686,0.924-1.702,0.924c-1.03,0-1.769-0.738-1.769-1.517
	c0-1.861,2.626-2.007,3.471-2.032v-0.674c0-0.83,0-1.755-0.831-1.755c-0.871,0-0.925,0.766-0.925,1.347H102.1
	c0.145-0.871,0.58-1.795,2.479-1.795c1.874,0,2.164,0.964,2.164,2.27v4.011h-1.319V25.733z M105.424,23.582
	c-0.475,0.014-2.019,0.08-2.019,1.334c0,0.606,0.303,1.029,0.791,1.029c0.766,0,1.228-0.7,1.228-1.598V23.582z"/>
<path fill="#7EAA64" d="M111.902,26.552c-0.292,0.052-0.594,0.104-0.885,0.104c-1.266,0-2.006-0.197-2.006-1.702v-4.051h-1.029
	v-0.527h1.029v-1.043l1.321-1.175v2.218h1.728v0.527h-1.728v3.84c0,0.923,0.065,1.332,1.081,1.332c0.158,0,0.329-0.012,0.488-0.051
	V26.552z"/>
<path fill="#7EAA64" d="M113.552,22.091c0-0.924-0.212-1.147-1.017-1.174v-0.265l2.335-0.422v6.281h-1.318V22.091z M113.406,18.357
	c0-0.447,0.37-0.817,0.831-0.817c0.448,0,0.845,0.355,0.845,0.817s-0.396,0.832-0.857,0.832
	C113.776,19.189,113.406,18.819,113.406,18.357"/>
<path fill="#7EAA64" d="M117.074,21.828c-0.33-0.884-0.475-1.108-1.373-1.189v-0.262h2.204l1.848,4.645l1.794-4.645h0.753
	l-2.362,6.135h-0.963L117.074,21.828z"/>
<path fill="#7EAA64" d="M126.193,25.733c-0.237,0.277-0.686,0.924-1.701,0.924c-1.028,0-1.769-0.738-1.769-1.517
	c0-1.861,2.625-2.007,3.47-2.032v-0.674c0-0.83,0-1.755-0.83-1.755c-0.871,0-0.926,0.766-0.926,1.347h-1.568
	c0.145-0.871,0.579-1.795,2.479-1.795c1.874,0,2.164,0.964,2.164,2.27v4.011h-1.319V25.733z M126.193,23.582
	c-0.475,0.014-2.018,0.08-2.018,1.334c0,0.606,0.304,1.029,0.792,1.029c0.764,0,1.226-0.7,1.226-1.598V23.582z"/>
<path fill="#7EAA64" d="M133.74,19.427c0-1.308-0.039-1.308-1.254-1.505V17.63h6.321l0.04,1.954h-0.37
	c0-1.056-0.567-1.333-1.424-1.333h-1.029c-0.661,0-0.833,0.054-0.833,0.686v2.626h1.598c0.923,0,1.003-0.58,1.081-1.016h0.371v2.771
	h-0.371c0-0.711-0.29-1.134-1.081-1.134h-1.598v4.328h-1.451V19.427z"/>
<path fill="#7EAA64" d="M140.682,22.091c0-0.924-0.213-1.147-1.018-1.174v-0.265l2.337-0.422v6.281h-1.319V22.091z M140.535,18.357
	c0-0.447,0.37-0.817,0.832-0.817c0.448,0,0.845,0.355,0.845,0.817s-0.396,0.832-0.858,0.832
	C140.905,19.189,140.535,18.819,140.535,18.357"/>
<path fill="#7EAA64" d="M144.283,22.091c0-0.923-0.226-1.147-1.057-1.173v-0.266l2.376-0.423v1.689h0.026
	c0.198-0.461,0.897-1.689,2.203-1.689c1.201,0,1.598,0.846,1.598,1.861v4.421h-1.32v-3.418c0-1.043,0-1.966-0.885-1.966
	c-0.871,0-1.622,1.227-1.622,2.164v3.22h-1.319V22.091z"/>
<path fill="#7EAA64" d="M154.311,25.733c-0.238,0.277-0.686,0.924-1.702,0.924c-1.03,0-1.768-0.738-1.768-1.517
	c0-1.861,2.625-2.007,3.47-2.032v-0.674c0-0.83,0-1.755-0.831-1.755c-0.871,0-0.925,0.766-0.925,1.347h-1.568
	c0.145-0.871,0.58-1.795,2.479-1.795c1.874,0,2.164,0.964,2.164,2.27v4.011h-1.319V25.733z M154.311,23.582
	c-0.475,0.014-2.019,0.08-2.019,1.334c0,0.606,0.303,1.029,0.791,1.029c0.766,0,1.228-0.7,1.228-1.598V23.582z"/>
<path fill="#7EAA64" d="M157.727,22.091c0-0.923-0.223-1.147-1.055-1.173v-0.266l2.376-0.423v1.689h0.026
	c0.197-0.461,0.896-1.689,2.203-1.689c1.2,0,1.597,0.846,1.597,1.861v4.421h-1.319v-3.418c0-1.043,0-1.966-0.885-1.966
	c-0.871,0-1.622,1.227-1.622,2.164v3.22h-1.321V22.091z"/>
<path fill="#7EAA64" d="M169.207,26.34c-0.475,0.171-0.777,0.316-1.873,0.316c-1.848,0-2.943-1.307-2.943-3.299
	c0-1.808,0.739-3.128,2.627-3.128c1.464,0,2.427,0.739,2.427,1.809h-1.557c0-0.541-0.133-1.359-0.95-1.359
	c-0.896,0-1.095,0.978-1.095,2.244c0,1.952,0.897,3.021,2.097,3.021c0.41,0,0.951-0.08,1.268-0.186V26.34z"/>
<path fill="#7EAA64" d="M170.751,22.091c0-0.924-0.211-1.147-1.016-1.174v-0.265l2.335-0.422v6.281h-1.319V22.091z M170.604,18.357
	c0-0.447,0.37-0.817,0.831-0.817c0.45,0,0.845,0.355,0.845,0.817s-0.395,0.832-0.857,0.832
	C170.975,19.189,170.604,18.819,170.604,18.357"/>
<path fill="#7EAA64" d="M178.773,26.301c-0.252,0.092-0.951,0.355-1.86,0.355c-2.019,0-3.233-1.228-3.233-3.432
	c0-2.084,1.002-2.995,2.77-2.995c2.258,0,2.442,1.637,2.442,2.521h-3.762c0,1.319,0.542,3.192,2.402,3.192
	c0.555,0,1.016-0.132,1.241-0.224V26.301z M177.571,22.223c0-0.304-0.025-1.544-1.174-1.544c-0.988,0-1.268,1.043-1.268,1.544
	H177.571z"/>
<path fill="#7EAA64" d="M180.383,22.091c0-0.923-0.212-1.147-1.043-1.173v-0.266l2.362-0.423v1.742h0.026
	c0.185-0.606,0.594-1.742,1.649-1.742c0.237,0,0.487,0.028,0.712,0.066v1.255c-0.211-0.066-0.448-0.159-0.672-0.159
	c-1.333,0-1.716,1.042-1.716,1.966v3.154h-1.319V22.091z"/>
<path fill="#7EAA64" d="M187.799,25.733c-0.235,0.277-0.686,0.924-1.7,0.924c-1.029,0-1.77-0.738-1.77-1.517
	c0-1.861,2.626-2.007,3.47-2.032v-0.674c0-0.83,0-1.755-0.831-1.755c-0.869,0-0.923,0.766-0.923,1.347h-1.57
	c0.146-0.871,0.58-1.795,2.48-1.795c1.874,0,2.164,0.964,2.164,2.27v4.011h-1.32V25.733z M187.799,23.582
	c-0.475,0.014-2.017,0.08-2.017,1.334c0,0.606,0.303,1.029,0.791,1.029c0.765,0,1.226-0.7,1.226-1.598V23.582z"/>
<path fill="#7EAA64" d="M30.325,26.168c-0.709,0.314-1.855,0.793-4.003,0.793c-4.525,0-6.151-2.731-6.151-7.423
	c0-3.795,1.168-6.88,5.818-6.88c1.856,0,3.21,0.312,4.169,0.625l0.126,3.481H29.68c-0.084-1.062-1.231-3.106-3.483-3.106
	c-3.064,0-3.564,3.273-3.564,5.88c0,3.295,1.146,6.255,4.044,6.255c1.98,0,3.003-0.625,3.648-1.062V26.168z"/>
<path fill="#7EAA64" d="M40.335,16.265c-0.167-1.126-0.709-2.606-2.919-2.606c-1.689,0-2.628,0.855-2.628,1.939
	c0,2.043,3.545,3.002,5.108,4.212c1.023,0.792,1.752,1.709,1.752,3.128c0,2.938-2.272,4.023-5.442,4.023
	c-1.647,0-3.003-0.376-3.711-0.562l-0.125-3.441h0.604c0.252,1.064,0.73,3.003,3.462,3.003c1.813,0,2.835-0.979,2.835-2.253
	c0-2.043-2.439-2.793-4.357-4.023c-1.251-0.812-2.272-1.813-2.272-3.481c0-2.252,1.729-3.545,4.774-3.545
	c1.396,0,2.773,0.272,3.398,0.375l0.125,3.232H40.335z"/>
<path fill="#7EAA64" d="M42.941,26.232c1.46,0,1.772-0.312,1.772-1.939v-8.966c0-1.626-0.312-1.939-1.772-1.939v-0.521h4.087
	l6.526,11.195h0.042v-8.735c0-1.626-0.313-1.939-1.772-1.939v-0.521h4.858v0.521c-1.502,0-1.772,0.313-1.772,1.939v11.426h-1.982
	l-6.859-11.78h-0.041v9.32c0,1.627,0.291,1.939,1.771,1.939v0.521h-4.858V26.232z"/>
<polygon fill="#7EAA64" points="18.442,21.4 12.571,24.823 6.671,21.449 6.642,14.654 12.513,11.23 18.415,14.603 "/>
<polygon fill="#7EAA64" points="11.802,10.304 5.93,13.727 0.029,10.354 0,3.557 5.871,0.134 11.773,3.507 "/>
<polygon fill="#7EAA64" points="25.068,10.17 19.196,13.593 13.297,10.22 13.267,3.423 19.138,0 25.04,3.374 "/>
<rect x="59.093" y="9.45" fill="#7EAA64" width="0.622" height="20.035"/>
<path fill="#7EAA64" d="M190.122,17.016h0.525l0.778,2.287l0.771-2.287h0.522v2.705h-0.351v-1.597c0-0.055,0.001-0.146,0.004-0.274
	c0.003-0.127,0.004-0.265,0.004-0.41l-0.772,2.281h-0.363l-0.78-2.281v0.083c0,0.065,0.002,0.167,0.005,0.303
	c0.004,0.136,0.006,0.235,0.006,0.299v1.597h-0.35V17.016z"/>
<path fill="#7EAA64" d="M193.317,17.016h1.23c0.203,0,0.37,0.029,0.501,0.09c0.25,0.115,0.375,0.329,0.375,0.64
	c0,0.161-0.033,0.294-0.101,0.398c-0.067,0.103-0.16,0.186-0.281,0.248c0.105,0.043,0.186,0.099,0.238,0.169
	c0.054,0.071,0.084,0.184,0.09,0.341l0.014,0.363c0.003,0.103,0.012,0.18,0.024,0.229c0.023,0.087,0.062,0.142,0.119,0.167v0.061
	h-0.45c-0.013-0.024-0.021-0.054-0.029-0.09c-0.008-0.037-0.014-0.108-0.018-0.215l-0.022-0.45
	c-0.009-0.178-0.072-0.297-0.192-0.356c-0.067-0.033-0.175-0.05-0.319-0.05h-0.812v1.161h-0.367V17.016z M194.509,18.256
	c0.167,0,0.299-0.035,0.396-0.104c0.098-0.068,0.146-0.192,0.146-0.372c0-0.192-0.068-0.324-0.204-0.394
	c-0.073-0.037-0.171-0.056-0.292-0.056h-0.871v0.926H194.509z"/>
</svg>
