<?xml version="1.0" encoding="utf-8"?>
<!-- Generator: Adobe Illustrator 16.0.0, SVG Export Plug-In . SVG Version: 6.00 Build 0)  -->
<!DOCTYPE svg PUBLIC "-//W3C//DTD SVG 1.1//EN" "http://www.w3.org/Graphics/SVG/1.1/DTD/svg11.dtd">
<svg version="1.1" id="Capa_1" xmlns="http://www.w3.org/2000/svg" xmlns:xlink="http://www.w3.org/1999/xlink" x="0px" y="0px"
	 width="100px" height="65px" viewBox="0 0 100 65" enable-background="new 0 0 100 65" xml:space="preserve">
<g>
	<g>
		<path fill="#FFFFFF" d="M5.116,62.469c-0.24,0.095-1.02,0.356-1.974,0.356c-1.974,0-2.735-1.261-2.735-3.419
			c0-1.781,0.53-3.273,2.677-3.273c1.502,0,2.089,0.654,2.195,1.426H4.125c-0.048-0.319-0.25-0.973-1.127-0.973
			c-1.319,0-1.531,1.589-1.531,2.58c0,1.078,0.116,3.205,1.974,3.205c0.838,0,1.425-0.334,1.675-0.519V62.469z"/>
		<path fill="#FFFFFF" d="M5.896,60.484c0-1.607,0.674-2.349,2.08-2.349c1.396,0,2.08,0.963,2.08,2.349
			c0,1.57-0.654,2.341-2.08,2.341C6.426,62.825,5.896,61.833,5.896,60.484z M7.976,62.497c0.944,0,1.021-1.048,1.021-2.013
			c0-0.886-0.086-2.021-1.021-2.021c-0.953,0-1.021,1.175-1.021,2.021C6.956,61.285,7.023,62.497,7.976,62.497z"/>
		<path fill="#FFFFFF" d="M10.894,60.484c0-1.607,0.674-2.349,2.08-2.349c1.396,0,2.08,0.963,2.08,2.349
			c0,1.57-0.655,2.341-2.08,2.341C11.423,62.825,10.894,61.833,10.894,60.484z M12.974,62.497c0.943,0,1.021-1.048,1.021-2.013
			c0-0.886-0.086-2.021-1.021-2.021c-0.954,0-1.021,1.175-1.021,2.021C11.953,61.285,12.02,62.497,12.974,62.497z"/>
		<path fill="#FFFFFF" d="M16.353,59.493c0-0.674-0.155-0.838-0.751-0.856v-0.193l1.724-0.308v0.78h0.02
			c0.211-0.289,0.645-0.78,1.242-0.78c1.223,0,1.676,1.06,1.676,2.273c0,1.163-0.328,2.416-1.714,2.416
			c-0.751,0-1.04-0.395-1.213-0.703h-0.02v2.562h-0.962V59.493z M17.315,60.784c0,0.529,0.106,1.52,0.963,1.52
			c0.838,0,0.924-1.183,0.924-1.895c0-0.694-0.077-1.754-0.934-1.754c-0.866,0-0.953,1.223-0.953,1.732V60.784z"/>
		<path fill="#FFFFFF" d="M24.739,62.563c-0.183,0.068-0.693,0.262-1.357,0.262c-1.473,0-2.359-0.896-2.359-2.504
			c0-1.521,0.731-2.186,2.022-2.186c1.646,0,1.781,1.194,1.781,1.84h-2.744c0,0.962,0.395,2.328,1.752,2.328
			c0.404,0,0.741-0.096,0.905-0.162V62.563z M23.863,59.589c0-0.221-0.019-1.125-0.857-1.125c-0.722,0-0.924,0.761-0.924,1.125
			H23.863z"/>
		<path fill="#FFFFFF" d="M25.914,59.493c0-0.674-0.153-0.838-0.76-0.856v-0.193l1.724-0.308v1.271h0.02
			c0.134-0.442,0.433-1.271,1.203-1.271c0.174,0,0.356,0.02,0.52,0.048v0.915c-0.154-0.048-0.327-0.116-0.49-0.116
			c-0.973,0-1.252,0.761-1.252,1.436v2.301h-0.963V59.493z"/>
		<path fill="#FFFFFF" d="M31.327,62.151c-0.173,0.201-0.5,0.674-1.241,0.674c-0.752,0-1.292-0.539-1.292-1.106
			c0-1.359,1.917-1.465,2.533-1.483v-0.492c0-0.606,0-1.279-0.606-1.279c-0.635,0-0.673,0.558-0.673,0.981H28.9
			c0.106-0.636,0.424-1.31,1.81-1.31c1.367,0,1.58,0.703,1.58,1.655v2.928h-0.964V62.151z M31.327,60.581
			c-0.347,0.01-1.473,0.058-1.473,0.974c0,0.441,0.221,0.749,0.578,0.749c0.559,0,0.896-0.509,0.896-1.163V60.581z"/>
		<path fill="#FFFFFF" d="M36.055,62.748c-0.212,0.038-0.433,0.077-0.646,0.077c-0.924,0-1.463-0.145-1.463-1.242v-2.956h-0.751
			v-0.385h0.751V57.48l0.964-0.856v1.618h1.26v0.385h-1.26v2.802c0,0.674,0.047,0.973,0.789,0.973c0.116,0,0.241-0.01,0.357-0.039
			V62.748z"/>
		<path fill="#FFFFFF" d="M37.258,59.493c0-0.674-0.154-0.838-0.742-0.856v-0.193l1.705-0.308v4.583h-0.963V59.493z M37.152,56.77
			c0-0.328,0.27-0.6,0.607-0.6c0.327,0,0.616,0.262,0.616,0.6c0,0.335-0.29,0.605-0.626,0.605
			C37.422,57.375,37.152,57.104,37.152,56.77z"/>
		<path fill="#FFFFFF" d="M39.829,59.301c-0.241-0.646-0.347-0.81-1.001-0.866v-0.192h1.607l1.349,3.389l1.309-3.389h0.549
			l-1.723,4.477h-0.703L39.829,59.301z"/>
		<path fill="#FFFFFF" d="M46.484,62.151c-0.173,0.201-0.5,0.674-1.242,0.674c-0.751,0-1.291-0.539-1.291-1.106
			c0-1.359,1.917-1.465,2.533-1.483v-0.492c0-0.606,0-1.279-0.606-1.279c-0.636,0-0.675,0.558-0.675,0.981h-1.146
			c0.106-0.636,0.424-1.31,1.812-1.31c1.367,0,1.578,0.703,1.578,1.655v2.928h-0.962V62.151z M46.484,60.581
			c-0.347,0.01-1.473,0.058-1.473,0.974c0,0.441,0.221,0.749,0.577,0.749c0.558,0,0.896-0.509,0.896-1.163V60.581z"/>
		<path fill="#FFFFFF" d="M51.991,57.548c0-0.952-0.028-0.952-0.914-1.097v-0.214h4.611l0.029,1.426h-0.27
			c0-0.771-0.414-0.972-1.04-0.972h-0.75c-0.482,0-0.607,0.039-0.607,0.5v1.917h1.164c0.676,0,0.732-0.423,0.79-0.741h0.27v2.021
			h-0.27c0-0.518-0.212-0.827-0.79-0.827h-1.164v3.158h-1.06V57.548z"/>
		<path fill="#FFFFFF" d="M57.057,59.493c0-0.674-0.154-0.838-0.743-0.856v-0.193l1.706-0.308v4.583h-0.963V59.493z M56.95,56.77
			c0-0.328,0.269-0.6,0.607-0.6c0.327,0,0.616,0.262,0.616,0.6c0,0.335-0.289,0.605-0.627,0.605
			C57.219,57.375,56.95,57.104,56.95,56.77z"/>
		<path fill="#FFFFFF" d="M59.686,59.493c0-0.674-0.164-0.838-0.771-0.856v-0.193l1.732-0.308v1.232h0.019
			c0.146-0.338,0.655-1.232,1.608-1.232c0.876,0,1.166,0.616,1.166,1.357v3.226h-0.964v-2.494c0-0.761,0-1.434-0.646-1.434
			c-0.635,0-1.184,0.895-1.184,1.579v2.349h-0.962V59.493z"/>
		<path fill="#FFFFFF" d="M67.003,62.151c-0.174,0.201-0.501,0.674-1.242,0.674c-0.752,0-1.291-0.539-1.291-1.106
			c0-1.359,1.916-1.465,2.533-1.483v-0.492c0-0.606,0-1.279-0.606-1.279c-0.636,0-0.676,0.558-0.676,0.981h-1.146
			c0.106-0.636,0.424-1.31,1.811-1.31c1.367,0,1.579,0.703,1.579,1.655v2.928h-0.962V62.151z M67.003,60.581
			c-0.346,0.01-1.474,0.058-1.474,0.974c0,0.441,0.222,0.749,0.577,0.749c0.559,0,0.896-0.509,0.896-1.163V60.581z"/>
		<path fill="#FFFFFF" d="M69.496,59.493c0-0.674-0.163-0.838-0.771-0.856v-0.193l1.733-0.308v1.232h0.02
			c0.145-0.338,0.654-1.232,1.607-1.232c0.876,0,1.166,0.616,1.166,1.357v3.226h-0.964v-2.494c0-0.761,0-1.434-0.646-1.434
			c-0.636,0-1.184,0.895-1.184,1.579v2.349h-0.963V59.493z"/>
		<path fill="#FFFFFF" d="M77.873,62.595c-0.348,0.124-0.568,0.23-1.367,0.23c-1.348,0-2.147-0.954-2.147-2.407
			c0-1.319,0.539-2.282,1.916-2.282c1.068,0,1.771,0.539,1.771,1.319H76.91c0-0.396-0.096-0.991-0.693-0.991
			c-0.655,0-0.8,0.712-0.8,1.636c0,1.426,0.656,2.204,1.531,2.204c0.299,0,0.693-0.057,0.925-0.134V62.595z"/>
		<path fill="#FFFFFF" d="M78.999,59.493c0-0.674-0.153-0.838-0.741-0.856v-0.193l1.704-0.308v4.583h-0.963V59.493z M78.894,56.77
			c0-0.328,0.27-0.6,0.606-0.6c0.326,0,0.617,0.262,0.617,0.6c0,0.335-0.291,0.605-0.627,0.605
			C79.163,57.375,78.894,57.104,78.894,56.77z"/>
		<path fill="#FFFFFF" d="M84.853,62.563c-0.183,0.068-0.692,0.262-1.356,0.262c-1.473,0-2.359-0.896-2.359-2.504
			c0-1.521,0.731-2.186,2.022-2.186c1.646,0,1.78,1.194,1.78,1.84h-2.744c0,0.962,0.396,2.328,1.753,2.328
			c0.404,0,0.741-0.096,0.904-0.162V62.563z M83.978,59.589c0-0.221-0.02-1.125-0.857-1.125c-0.723,0-0.925,0.761-0.925,1.125
			H83.978z"/>
		<path fill="#FFFFFF" d="M86.028,59.493c0-0.674-0.154-0.838-0.761-0.856v-0.193l1.724-0.308v1.271h0.02
			c0.134-0.442,0.433-1.271,1.203-1.271c0.173,0,0.356,0.02,0.52,0.048v0.915c-0.154-0.048-0.327-0.116-0.491-0.116
			c-0.972,0-1.251,0.761-1.251,1.436v2.301h-0.963V59.493z"/>
		<path fill="#FFFFFF" d="M91.441,62.151c-0.174,0.201-0.501,0.674-1.242,0.674c-0.751,0-1.29-0.539-1.29-1.106
			c0-1.359,1.916-1.465,2.532-1.483v-0.492c0-0.606,0-1.279-0.607-1.279c-0.635,0-0.674,0.558-0.674,0.981h-1.146
			c0.106-0.636,0.424-1.31,1.811-1.31c1.367,0,1.579,0.703,1.579,1.655v2.928h-0.963V62.151z M91.441,60.581
			c-0.348,0.01-1.474,0.058-1.474,0.974c0,0.441,0.222,0.749,0.577,0.749c0.56,0,0.896-0.509,0.896-1.163V60.581z"/>
	</g>
	<g>
		<g>
			<path fill="#FFFFFF" d="M49.301,44.526c-1.162,0.512-3.039,1.298-6.558,1.298c-7.413,0-10.076-4.475-10.076-12.16
				c0-6.216,1.913-11.27,9.529-11.27c3.04,0,5.261,0.51,6.832,1.023l0.205,5.704h-0.991c-0.137-1.741-2.016-5.089-5.704-5.089
				c-5.021,0-5.84,5.363-5.84,9.632c0,5.397,1.879,10.247,6.626,10.247c3.245,0,4.918-1.024,5.977-1.741V44.526z"/>
			<path fill="#FFFFFF" d="M65.698,28.301c-0.273-1.843-1.162-4.269-4.781-4.269c-2.767,0-4.305,1.401-4.305,3.176
				c0,3.349,5.807,4.92,8.368,6.901c1.675,1.297,2.869,2.801,2.869,5.122c0,4.816-3.723,6.593-8.914,6.593
				c-2.698,0-4.919-0.615-6.08-0.922l-0.205-5.636h0.99c0.41,1.742,1.195,4.919,5.67,4.919c2.972,0,4.646-1.606,4.646-3.689
				c0-3.348-3.997-4.577-7.14-6.593c-2.049-1.331-3.723-2.971-3.723-5.703c0-3.689,2.835-5.806,7.822-5.806
				c2.287,0,4.541,0.444,5.567,0.614l0.205,5.293H65.698z"/>
			<path fill="#FFFFFF" d="M69.97,44.63c2.391,0,2.903-0.514,2.903-3.178V26.764c0-2.663-0.513-3.176-2.903-3.176v-0.853h6.694
				l10.69,18.341h0.067V26.764c0-2.663-0.512-3.176-2.902-3.176v-0.853h7.959v0.853c-2.459,0-2.903,0.513-2.903,3.176v18.718H86.33
				L75.093,26.185h-0.067v15.267c0,2.664,0.478,3.178,2.902,3.178v0.853H69.97V44.63z"/>
		</g>
		<g>
			<polygon fill="#FFFFFF" points="30.547,35.292 20.928,40.9 11.262,35.375 11.214,24.239 20.833,18.632 30.499,24.158 			"/>
			<polygon fill="#FFFFFF" points="19.667,17.115 10.048,22.724 0.381,17.197 0.333,6.064 9.952,0.455 19.619,5.979 			"/>
			<polygon fill="#FFFFFF" points="41.4,16.896 31.781,22.504 22.115,16.979 22.068,5.845 31.686,0.235 41.353,5.762 			"/>
		</g>
	</g>
	<g>
		<polygon fill="#FFFFFF" points="0.264,52.102 0.264,51.747 92.404,51.747 92.404,52.102 0.264,52.102 		"/>
	</g>
	<g>
		<path fill="#FFFFFF" d="M93.722,19.573h0.593l0.879,2.583l0.871-2.583h0.589v3.055H96.26v-1.803c0-0.062,0-0.166,0.003-0.31
			c0.003-0.144,0.005-0.298,0.005-0.463l-0.873,2.577h-0.409l-0.882-2.577v0.094c0,0.075,0.004,0.189,0.007,0.342
			c0.004,0.153,0.007,0.266,0.007,0.338v1.803h-0.396V19.573z"/>
		<path fill="#FFFFFF" d="M97.33,19.573h1.389c0.229,0,0.418,0.034,0.565,0.102c0.282,0.13,0.424,0.371,0.424,0.721
			c0,0.183-0.038,0.333-0.115,0.449c-0.075,0.117-0.181,0.21-0.316,0.282c0.119,0.048,0.21,0.112,0.271,0.192
			c0.06,0.078,0.094,0.207,0.101,0.384l0.014,0.41c0.004,0.117,0.015,0.204,0.029,0.26c0.025,0.098,0.069,0.16,0.133,0.187v0.069
			h-0.507c-0.015-0.027-0.024-0.06-0.034-0.102c-0.008-0.042-0.015-0.122-0.02-0.242l-0.025-0.51
			c-0.011-0.199-0.082-0.333-0.217-0.401c-0.077-0.038-0.196-0.056-0.361-0.056h-0.916v1.31H97.33V19.573z M98.674,20.972
			c0.188,0,0.338-0.039,0.447-0.116c0.111-0.078,0.166-0.218,0.166-0.42c0-0.219-0.077-0.367-0.231-0.446
			c-0.082-0.042-0.191-0.062-0.33-0.062h-0.982v1.044H98.674z"/>
	</g>
</g>
</svg>
