<?xml version="1.0" encoding="utf-8"?>
<!-- Generator: Adobe Illustrator 21.0.2, SVG Export Plug-In . SVG Version: 6.00 Build 0)  -->
<svg version="1.1" id="Capa_1" xmlns="http://www.w3.org/2000/svg" xmlns:xlink="http://www.w3.org/1999/xlink" x="0px" y="0px"
	 viewBox="0 0 40 40" style="enable-background:new 0 0 40 40;" xml:space="preserve">
<style type="text/css">
	.st0{fill:#81B265;}
	.st1{fill:#FFFFFF;}
</style>
<path class="st0" d="M20,1C12.8,1,7,7.4,7,15.3c0,3.3,1.1,6.3,2.7,8.8C20,40,20,40,20,40s0,0,10.3-15.9c1.6-2.5,2.7-5.5,2.7-8.8
	C33,7.4,27.2,1,20,1z"/>
<path class="st1" d="M20,6.7c-4.4,0-8,4-8,8.8c0,4.9,3.6,8.8,8,8.8c4.4,0,8-3.9,8-8.8C28,10.7,24.4,6.7,20,6.7z"/>
<g>
	<path class="st0" d="M16.8,14.8h0.2c0,0,0,0,0,0v3.5h-0.1c-0.1,0-0.2,0.1-0.2,0.2c0,0.1,0.1,0.2,0.2,0.2h0.3H18h0.8h0.8h0.8h0.8H22
		h0.8h0.3c0.1,0,0.2-0.1,0.2-0.2c0-0.1-0.1-0.2-0.2-0.2H23v-3.5c0,0,0,0,0,0h0.2c0.2,0,0.3-0.1,0.4-0.3c0.1-0.2,0-0.3-0.1-0.4
		l-3.3-2.5c-0.1-0.1-0.2-0.1-0.3,0l-3.3,2.5c-0.1,0.1-0.2,0.3-0.1,0.4C16.5,14.7,16.6,14.8,16.8,14.8z M20.2,18.4h-0.4v-3.5
		c0,0,0,0,0,0h0.4c0,0,0,0,0,0L20.2,18.4L20.2,18.4z M18.6,18.4h-0.4v-3.5c0,0,0,0,0,0h0.4c0,0,0,0,0,0
		C18.6,14.9,18.6,18.4,18.6,18.4z M17.4,18.4v-3.3h0.4v3.3H17.4z M19,18.4v-3.3h0.4v3.3H19z M20.6,18.4v-3.3H21v3.3H20.6z
		 M22.2,18.4v-3.3h0.4v3.3H22.2z M21.8,14.9v3.5h-0.4v-3.5c0,0,0,0,0,0L21.8,14.9C21.8,14.9,21.8,14.9,21.8,14.9z M20,12.1l3,2.3
		h-6.1L20,12.1z"/>
	<path class="st0" d="M23.5,19.1h-7.1c-0.1,0-0.2,0.1-0.2,0.2c0,0.1,0.1,0.2,0.2,0.2h7.1c0.1,0,0.2-0.1,0.2-0.2
		C23.8,19.2,23.7,19.1,23.5,19.1z"/>
</g>
</svg>
