<?xml version="1.0" encoding="utf-8"?>
<!-- Generator: Adobe Illustrator 16.0.0, SVG Export Plug-In . SVG Version: 6.00 Build 0)  -->
<!DOCTYPE svg PUBLIC "-//W3C//DTD SVG 1.1//EN" "http://www.w3.org/Graphics/SVG/1.1/DTD/svg11.dtd">
<svg version="1.1" id="Capa_1" xmlns="http://www.w3.org/2000/svg" xmlns:xlink="http://www.w3.org/1999/xlink" x="0px" y="0px"
	 width="100px" height="100px" viewBox="0 0 100 100" enable-background="new 0 0 100 100" xml:space="preserve">
<path fill="#81B265" d="M49.985,4.376c-16.972,0-30.75,15.198-30.75,33.905c0,7.816,2.578,14.806,6.37,20.676
	c24.38,37.667,24.38,37.667,24.38,37.667s0,0,24.383-37.671c3.79-5.869,6.364-12.876,6.364-20.672
	C80.733,19.574,66.975,4.376,49.985,4.376z"/>
<path fill="#FFFFFF" d="M49.984,17.903c-10.441,0-18.919,9.346-18.919,20.862c0,11.545,8.478,20.865,18.919,20.865
	c10.456,0,18.917-9.32,18.917-20.865C68.901,27.249,60.441,17.903,49.984,17.903z"/>
<g>
	<path fill="#81B265" d="M42.401,37.139h0.406c-0.002,0.022-0.005,0.044-0.005,0.067v8.226h-0.275c-0.277,0-0.503,0.234-0.503,0.521
		c0,0.29,0.227,0.524,0.503,0.524h0.777h1.909h1.908h1.908h1.908h1.907h1.908h1.908h0.779c0.277,0,0.502-0.234,0.502-0.524
		c0-0.287-0.225-0.521-0.502-0.521h-0.276v-8.226c0-0.023-0.001-0.045-0.005-0.067h0.406c0.379,0,0.713-0.251,0.831-0.626
		c0.119-0.375-0.006-0.784-0.31-1.018l-7.805-6.011c-0.178-0.137-0.421-0.137-0.598,0l-7.804,6.011
		c-0.305,0.234-0.43,0.644-0.312,1.018C41.688,36.888,42.022,37.139,42.401,37.139z M50.436,45.432h-0.903v-8.226
		c0-0.023-0.001-0.045-0.005-0.067h0.913c-0.003,0.022-0.004,0.044-0.004,0.067V45.432L50.436,45.432z M46.619,45.432h-0.903v-8.226
		c0-0.023-0.001-0.045-0.004-0.067h0.912c-0.002,0.022-0.005,0.044-0.005,0.067V45.432z M43.808,45.432V37.73h0.902v7.702H43.808z
		 M47.624,45.432V37.73h0.903v7.702H47.624z M51.44,45.432V37.73h0.902v7.702H51.44z M55.256,45.432V37.73h0.903v7.702H55.256z
		 M54.251,37.207v8.226h-0.902v-8.226c0-0.023-0.003-0.045-0.005-0.067h0.912C54.253,37.162,54.251,37.184,54.251,37.207z
		 M49.983,30.556l7.188,5.537H42.794L49.983,30.556z"/>
	<path fill="#81B265" d="M58.384,47.106H41.582c-0.277,0-0.503,0.234-0.503,0.524c0,0.287,0.226,0.521,0.503,0.521h16.802
		c0.278,0,0.504-0.234,0.504-0.521C58.888,47.34,58.662,47.106,58.384,47.106z"/>
</g>
</svg>
