<?xml version="1.0" encoding="utf-8"?>
<!-- Generator: Adobe Illustrator 21.0.2, SVG Export Plug-In . SVG Version: 6.00 Build 0)  -->
<svg version="1.1" id="Capa_1" xmlns="http://www.w3.org/2000/svg" xmlns:xlink="http://www.w3.org/1999/xlink" x="0px" y="0px"
	 viewBox="0 0 40 40" style="enable-background:new 0 0 40 40;" xml:space="preserve">
<style type="text/css">
	.st0{fill:#81B265;}
	.st1{fill:#FFFFFF;}
</style>
<path class="st0" d="M20,0.7c-7.2,0-13,6.4-13,14.3c0,3.3,1.1,6.3,2.7,8.7C20,39.8,20,39.8,20,39.8s0,0,10.3-15.9
	c1.6-2.5,2.7-5.4,2.7-8.7C33,7.2,27.2,0.7,20,0.7z"/>
<path class="st1" d="M19.8,6.6c-4.4,0-8,4-8,8.8c0,4.9,3.6,8.8,8,8.8c4.4,0,8-3.9,8-8.8C27.8,10.5,24.2,6.6,19.8,6.6z"/>
<g>
	<g>
		<path class="st0" d="M15.7,12.5v1.4v0.3v0.3h1.6v2.9c0,0.5,0.4,0.9,0.8,0.9h2.5c0.5,0,0.8-0.4,0.8-0.9v0h0c0.5,0,0.8-0.4,0.8-0.9
			v-1.9h1.6v-0.3v-0.3v-1.4L15.7,12.5L15.7,12.5z M17.3,13.9h-1v-0.8h1V13.9z M20.9,17.4c0,0.2-0.1,0.3-0.3,0.3h-2.5
			c-0.2,0-0.3-0.1-0.3-0.3v-4.3h3.1V17.4z M21.8,16.4c0,0.2-0.1,0.3-0.3,0.3h0v-3.6h0.3V16.4z M23.4,13.9h-1v-0.8h1V13.9z
			 M19.4,16.3c-0.3,0-0.5-0.1-0.6-0.3l0,0l-0.5,0.2l0,0c0.1,0.3,0.4,0.6,0.8,0.6v0.3h0.5v-0.3c0.4,0,0.7-0.3,0.7-0.8
			c0-0.7-0.6-0.8-1-0.8c-0.3,0-0.5-0.1-0.5-0.3c0-0.2,0.3-0.3,0.5-0.3c0.2,0,0.4,0.1,0.5,0.2l0,0l0.4-0.2l0,0
			c-0.2-0.4-0.4-0.5-0.6-0.5v-0.3h-0.5v0.3c-0.5,0.1-0.7,0.4-0.7,0.8c0,0.6,0.5,0.7,0.9,0.8c0.4,0,0.5,0.1,0.5,0.3
			C19.9,16.3,19.5,16.3,19.4,16.3z"/>
	</g>
</g>
</svg>
