<?xml version="1.0" encoding="utf-8"?>
<!-- Generator: Adobe Illustrator 16.0.0, SVG Export Plug-In . SVG Version: 6.00 Build 0)  -->
<!DOCTYPE svg PUBLIC "-//W3C//DTD SVG 1.1//EN" "http://www.w3.org/Graphics/SVG/1.1/DTD/svg11.dtd">
<svg version="1.1" id="Capa_1" xmlns="http://www.w3.org/2000/svg" xmlns:xlink="http://www.w3.org/1999/xlink" x="0px" y="0px"
	 width="100px" height="100px" viewBox="0 0 100 100" enable-background="new 0 0 100 100" xml:space="preserve">
<path fill="#81B265" d="M50.5,4.376c-16.972,0-30.75,15.198-30.75,33.905c0,7.816,2.578,14.806,6.37,20.676
	C50.5,96.624,50.5,96.624,50.5,96.624s0,0,24.383-37.671c3.79-5.869,6.364-12.876,6.364-20.672
	C81.249,19.574,67.49,4.376,50.5,4.376z"/>
<path fill="#FFFFFF" d="M50.001,18.137c-10.441,0-18.919,9.346-18.919,20.862c0,11.545,8.478,20.864,18.919,20.864
	c10.456,0,18.917-9.319,18.917-20.864C68.918,27.482,60.458,18.137,50.001,18.137z"/>
<g>
	<g>
		<path fill="#81B265" d="M40.25,32.131v3.351V36.2v0.718h3.768v6.783c0,1.196,0.887,2.168,1.978,2.168h5.97
			c1.091,0,1.978-0.973,1.978-2.168v-0.114h0.043c1.09,0,1.978-0.956,1.978-2.13v-4.539h3.786V36.2V35.48v-3.35H40.25z
			 M44.019,35.481h-2.458v-1.915h2.458V35.481z M52.635,43.701c0,0.403-0.299,0.731-0.669,0.731h-5.97
			c-0.368,0-0.668-0.328-0.668-0.731V33.567h7.307V43.701z M54.653,41.457c0,0.382-0.301,0.694-0.667,0.694h-0.043v-8.584h0.71
			V41.457z M58.439,35.481h-2.476v-1.915h2.476V35.481z M49.089,41.123c-0.615,0-1.208-0.336-1.38-0.783l-0.042-0.11l-1.08,0.5
			l0.043,0.111c0.32,0.82,1.009,1.334,1.948,1.455v0.787h1.163v-0.826c0.894-0.11,1.763-0.729,1.763-1.904
			c0-1.596-1.354-1.779-2.343-1.913c-0.632-0.083-1.116-0.179-1.116-0.599c0-0.584,0.751-0.647,1.073-0.647
			c0.479,0,0.99,0.247,1.164,0.562l0.051,0.092l0.994-0.504l-0.05-0.11c-0.37-0.83-1.034-1.07-1.536-1.167v-0.728h-1.163v0.725
			c-1.083,0.174-1.727,0.834-1.727,1.777c0,1.536,1.273,1.693,2.202,1.807c0.828,0.107,1.213,0.332,1.213,0.705
			C50.267,41.067,49.365,41.123,49.089,41.123z"/>
	</g>
</g>
</svg>
